<?xml version="1.0" encoding="utf-8"?>
<!-- Generator: Adobe Illustrator 20.0.0, SVG Export Plug-In . SVG Version: 6.00 Build 0)  -->
<svg version="1.1" id="Layer_1" xmlns="http://www.w3.org/2000/svg" xmlns:xlink="http://www.w3.org/1999/xlink" x="0px" y="0px"
	 viewBox="0 0 75 75" style="enable-background:new 0 0 75 75;" xml:space="preserve">
<style type="text/css">
	.st0{fill:#FFFFFF;}
</style>
<path class="st0" d="M38.9,52.7c0-0.5,0-0.8-0.2-1.2c-0.2-0.3-0.2-0.8-0.3-1.1c-0.2-0.3-0.3-0.6-0.5-1.1c-0.3-0.3-0.5-0.6-0.6-0.9
	c-0.2-0.3-0.5-0.5-0.8-0.9c-0.3-0.3-0.6-0.6-0.8-0.8c-0.2-0.2-0.5-0.5-0.9-0.8c-0.5-0.3-0.8-0.6-0.9-0.6c-0.2,0-0.5-0.3-0.9-0.6
	S32.2,44,32.1,44c-0.3,0-0.8,0-1.6,0c-1.1,0-2.2,0-3.1,0.2c-1.1,0.2-2.2,0.3-3.3,0.8c-1.1,0.3-2,0.8-3,1.4c-0.9,0.6-1.6,1.2-2,2.2
	c-0.5,0.9-0.8,2-0.8,3.3c0,1.4,0.3,2.6,1.1,3.6c0.8,1.1,1.7,1.9,2.8,2.5c1.1,0.6,2.3,1.1,3.6,1.4c1.2,0.3,2.5,0.5,3.7,0.5
	s2.3-0.2,3.4-0.3c1.1-0.3,2-0.6,3-1.2c0.9-0.5,1.7-1.2,2.2-2.2C38.6,55.1,38.9,54,38.9,52.7z M35.3,26.9c0-1.2-0.2-2.5-0.5-3.9
	c-0.3-1.4-0.8-2.6-1.4-3.9c-0.6-1.2-1.4-2.3-2.5-3.1s-2.3-1.2-3.6-1.2c-1.9,0-3.3,0.6-4.4,2s-1.6,3-1.6,5c0,0.9,0.2,1.9,0.3,3
	c0.2,1.1,0.6,2,1.1,3.1c0.5,1.1,1.1,2,1.7,2.8c0.6,0.8,1.4,1.6,2.3,2c0.9,0.5,1.9,0.8,3,0.8c1.9,0,3.3-0.6,4.2-1.9
	C34.9,30.5,35.3,28.9,35.3,26.9z M31.4,12.8h13.1l-4,2.3h-4c1.4,0.9,2.5,2.2,3.3,3.7c0.8,1.6,1.2,3.3,1.2,5c0,1.4-0.2,2.8-0.6,3.9
	c-0.5,1.1-1.1,2-1.7,2.8c-0.6,0.6-1.2,1.4-2,1.9c-0.6,0.6-1.2,1.2-1.7,1.9s-0.6,1.2-0.6,2c0,0.5,0.2,1.1,0.5,1.6
	c0.3,0.5,0.8,0.9,1.2,1.4c0.5,0.5,1.1,0.9,1.7,1.4c0.6,0.5,1.2,1.1,1.9,1.7c0.6,0.6,1.2,1.2,1.7,2s0.9,1.6,1.2,2.5s0.5,2,0.5,3.1
	c0,3.3-1.4,6.1-4.2,8.4c-3,2.6-7.2,3.9-12.6,3.9c-1.2,0-2.3-0.2-3.6-0.3S20.1,61.4,19,61c-1.2-0.5-2.3-1.1-3.3-1.7
	c-0.9-0.6-1.7-1.6-2.3-2.6c-0.5-0.9-0.8-2-0.8-3.4c0-1.2,0.3-2.5,1.1-4c0.6-1.2,1.6-2.3,2.8-3.3c1.2-0.9,2.8-1.7,4.4-2.2
	s3.1-0.8,4.7-1.1c1.4-0.2,3-0.3,4.5-0.5c-1.2-1.7-1.9-3.1-1.9-4.5c0-0.3,0-0.5,0-0.8c0-0.2,0.2-0.5,0.2-0.6c0-0.2,0.2-0.3,0.3-0.6
	s0.2-0.5,0.2-0.6c-0.8,0.2-1.6,0.2-2,0.2c-3,0-5.4-0.9-7.6-3S16,27.9,16,24.9c0-2.8,0.9-5.3,2.8-7.5c1.9-2,4.2-3.4,7-4
	C27.7,12.9,29.6,12.8,31.4,12.8z M62.4,20.4v3.9h-7.6v7.6h-3.9v-7.6h-7.6v-3.9h7.6v-7.6h3.9v7.6H62.4z"/>
</svg>
