<?xml version="1.0" encoding="utf-8"?>
<!-- Generator: Adobe Illustrator 20.0.0, SVG Export Plug-In . SVG Version: 6.00 Build 0)  -->
<svg version="1.1" id="Layer_1" xmlns="http://www.w3.org/2000/svg" xmlns:xlink="http://www.w3.org/1999/xlink" x="0px" y="0px"
	 viewBox="0 0 32 32" style="enable-background:new 0 0 32 32;" xml:space="preserve">
<style type="text/css">
	.st0{fill:#7479BD;}
</style>
<g>
	<path class="st0" d="M21.3,23.5h-8.4c0,0-0.1,0.1-0.1,0.1l-3,1.2h11.6c0.4,0,0.7-0.3,0.7-0.7C21.9,23.8,21.6,23.5,21.3,23.5z"/>
	<path class="st0" d="M24.6,10l-2.6-2.6c-0.2-0.2-0.5-0.2-0.7,0l-12,12c0,0-0.1,0.1-0.1,0.2l-1.8,4.4c-0.1,0.2,0,0.4,0.1,0.6
		c0.1,0.1,0.2,0.2,0.4,0.2c0.1,0,0.1,0,0.2,0l2.8-1.1l0,0l1.6-0.7c0.1,0,0.1-0.1,0.2-0.1l12-12c0.1-0.1,0.2-0.2,0.2-0.4
		C24.7,10.2,24.7,10.1,24.6,10z M11.9,21.9l-1.7,0.7l-0.9-0.9L10,20L21.6,8.5l0.9,0.9l-11,11c-0.1,0.1-0.1,0.3,0,0.4
		c0.1,0.1,0.1,0.1,0.2,0.1c0.1,0,0.1,0,0.2-0.1l11-11l0.7,0.7L11.9,21.9z"/>
</g>
</svg>
