<?xml version="1.0" encoding="utf-8"?>
<!-- Generator: Adobe Illustrator 20.0.0, SVG Export Plug-In . SVG Version: 6.00 Build 0)  -->
<svg version="1.1" id="Layer_1" xmlns="http://www.w3.org/2000/svg" xmlns:xlink="http://www.w3.org/1999/xlink" x="0px" y="0px"
	 viewBox="0 0 32 32" style="enable-background:new 0 0 32 32;" xml:space="preserve">
<style type="text/css">
	.st0{fill:#7479BD;}
</style>
<path class="st0" d="M23.4,15.9c-0.1-0.2-0.3-0.3-0.5-0.3h-1.6c-0.4,0-0.6-0.1-0.8-0.2c-0.1-0.1-0.4-0.3-0.9-1.1l-0.4-0.6
	c-0.5-0.7-0.8-1.1-1-1.3l-2.8-3l-0.7-3.1c0-0.1-0.1-0.2-0.2-0.3C14.3,6,14.2,6,14.1,6l-0.2,0c-1.7,0.4-2.6,1.4-2.6,3.1
	c0,0.6,0.3,1.4,0.8,2.5l0.2,0.4c0.4,0.8,0.7,1.5,0.8,2.3H13c-1.5,0-2.8,0.3-3.7,0.8c-1,0.6-1.5,1.3-1.5,2.2c0,0.7,0.3,1.4,0.8,2
	c-0.2,0.3-0.3,0.7-0.3,1c0,0.4,0.1,0.8,0.4,1.1c0.2,0.3,0.5,0.4,0.9,0.6c0,0.1,0,0.2,0,0.3c0,1,0.6,1.6,1.6,1.8c0,0,0,0.1,0,0.1
	c0,0.8,0.4,1.8,2.5,1.8h0.6c0.1,0,0.2,0,0.2-0.1l0.4-0.2c0.7,0.2,1.2,0.3,1.8,0.3c0.2,0,0.5,0,0.8,0c0.1,0,0.1,0,0.2,0
	c1.2-0.6,2.3-1.4,3.4-2.6h2c0.2,0,0.4-0.1,0.5-0.3c0.5-1.2,0.7-2.4,0.7-3.5C24.2,18.2,23.9,17,23.4,15.9z M16.9,24.9l0.7-0.3
	c0.1-0.1,0.2-0.2,0.3-0.3c0-0.1,0-0.3,0-0.4c-0.2-0.5-0.6-0.9-0.9-1.2l0.3-0.2c0.1-0.1,0.2-0.2,0.3-0.3c0-0.1,0-0.3-0.1-0.4
	c-0.3-0.4-0.6-0.8-0.9-1.1c0.1-0.1,0.2-0.2,0.2-0.3c0-0.1,0-0.3,0-0.4c-0.3-0.5-0.7-1-1.1-1.3c0.1-0.1,0.1-0.1,0.2-0.2
	c0-0.1,0-0.3,0-0.4c-0.6-1.2-1.6-1.9-2.9-1.9c-0.3,0-0.6,0-0.9,0.1c-0.3,0.1-0.6,0.2-1,0.3l-0.6,0c-0.2,0-0.4,0.1-0.5,0.3
	c-0.1,0.2,0,0.4,0.1,0.5l0.2,0.2c0.1,0.1,0.2,0.2,0.4,0.2l0.5,0c0.1,0,0.1,0,0.2,0c0.4-0.2,0.7-0.3,0.9-0.3c0.3-0.1,0.5-0.1,0.6-0.1
	c0.5,0,1,0.2,1.3,0.6l-2.5,1.1l-0.9,0c-0.6,0-1-0.2-1.4-0.6C9.2,18.3,9,17.8,9,17.3c0-0.4,0.1-0.9,1.1-1.3c0.8-0.3,2-0.5,3.6-0.5H14
	c0,0,0,0,0,0c0.3,0,0.5-0.2,0.5-0.5c0,0,0-0.1,0-0.1l0-0.1c0-1.2-0.4-2.6-1.2-3.9c0,0,0,0,0,0L13,10.6c-0.3-0.5-0.5-1-0.5-1.5
	c0-0.4,0.1-0.8,0.3-1.1c0.2-0.2,0.5-0.4,0.8-0.6l0.5,2.5c0,0.1,0.1,0.2,0.1,0.2l3,3.2c0.6,0.7,0.9,1.2,1.2,1.5
	c1,1.4,1.4,1.6,1.6,1.7c0.1,0.1,0.5,0.2,2.4,0.3c0.3,0.9,0.5,1.8,0.5,2.7c0,0.8-0.1,1.6-0.4,2.4h-1.8c-0.2,0-0.3,0.1-0.4,0.2
	c-0.8,1-1.8,1.9-3,2.6L16.9,24.9z M13.6,24.8c-0.5,0-0.8-0.1-1-0.2c-0.2-0.1-0.2-0.3-0.3-0.5h1.1c0.1,0,0.1,0,0.2,0l2-0.9
	c0.2,0.2,0.4,0.4,0.6,0.6c0,0,0,0,0,0l-2.2,1H13.6z M9.6,20.4c0-0.1,0-0.1,0.1-0.2c0.4,0.2,1,0.3,1.7,0.3h0.8c0.1,0,0.1,0,0.2,0
	l2.2-1c0.3,0.1,0.6,0.3,0.9,0.6l-2.5,1.1h-1.6c-0.6,0-1-0.1-1.3-0.2C9.7,20.8,9.6,20.6,9.6,20.4z M12.9,22.3c0.1,0,0.1,0,0.2,0
	l2.2-1c0.2,0.1,0.5,0.3,0.6,0.5l-2.6,1.2h-1.1c-0.6,0-1-0.1-1.2-0.2c-0.2-0.1-0.3-0.2-0.3-0.4L12.9,22.3z"/>
</svg>
