<?xml version="1.0" encoding="utf-8"?>
<!-- Generator: Adobe Illustrator 20.0.0, SVG Export Plug-In . SVG Version: 6.00 Build 0)  -->
<svg version="1.1" id="Layer_1" xmlns="http://www.w3.org/2000/svg" xmlns:xlink="http://www.w3.org/1999/xlink" x="0px" y="0px"
	 viewBox="0 0 20 20" style="enable-background:new 0 0 20 20;" xml:space="preserve">
<style type="text/css">
	.st0{fill:#7479BD;}
</style>
<g>
	<path class="st0" d="M11.8,6.9c-1.4-1.4-3.5-1.4-4.9,0c-1.4,1.4-1.4,3.5,0,4.9c1.2,1.2,3,1.3,4.3,0.5l1.8,1.8l1.1-1.1l-1.8-1.8
		C13.1,9.9,13,8.1,11.8,6.9z M11,11C10.1,12,8.6,12,7.7,11c-0.9-0.9-0.9-2.4,0-3.4c0.9-0.9,2.4-0.9,3.4,0C12,8.6,12,10.1,11,11z"/>
</g>
</svg>
