<?xml version="1.0" encoding="utf-8"?>
<!-- Generator: Adobe Illustrator 20.0.0, SVG Export Plug-In . SVG Version: 6.00 Build 0)  -->
<svg version="1.1" id="Layer_1" xmlns="http://www.w3.org/2000/svg" xmlns:xlink="http://www.w3.org/1999/xlink" x="0px" y="0px"
	 viewBox="0 0 32 32" style="enable-background:new 0 0 32 32;" xml:space="preserve">
<style type="text/css">
	.st0{fill:#7479BD;}
</style>
<path class="st0" d="M24.9,11.5l-4.4-4.4c-0.4-0.4-1.1-0.4-1.5,0c-0.3,0.3-0.4,0.7-0.3,1.1l-6.7,2.6c-0.3,0.1-0.4,0.4-0.4,0.7
	c0,0,0.5,4.5-4.7,10.6c-0.2,0.3-0.2,0.6,0,0.9L9.1,25c0.1,0.1,0.3,0.2,0.5,0.2c0.2,0,0.3-0.1,0.4-0.2c5.1-4.4,9.1-4.7,10.2-4.7
	c0.2,0,0.4,0,0.4,0c0.3,0,0.6-0.1,0.7-0.4l2.6-6.7c0.1,0,0.2,0,0.3,0c0.3,0,0.5-0.1,0.7-0.3C25.3,12.6,25.3,11.9,24.9,11.5z
	 M20.2,19C20.2,19,20.2,19,20.2,19c-1.5,0-5.5,0.5-10.6,4.6l-0.3-0.3l7.1-7.1c0.2,0.1,0.3,0.1,0.5,0.1c0.3,0,0.6-0.1,0.8-0.3
	c0.4-0.4,0.4-1.2,0-1.6c-0.2-0.2-0.5-0.3-0.8-0.3c-0.3,0-0.6,0.1-0.8,0.3c-0.4,0.4-0.4,0.9-0.2,1.3l-7.1,7.1l-0.3-0.3
	c4.2-5.2,4.6-9.2,4.6-10.6l6-2.4l3.5,3.5L20.2,19z"/>
</svg>
