<?xml version="1.0" encoding="utf-8"?>
<!-- Generator: Adobe Illustrator 20.0.0, SVG Export Plug-In . SVG Version: 6.00 Build 0)  -->
<svg version="1.1" id="Layer_1" xmlns="http://www.w3.org/2000/svg" xmlns:xlink="http://www.w3.org/1999/xlink" x="0px" y="0px"
	 viewBox="0 0 20 20" style="enable-background:new 0 0 20 20;" xml:space="preserve">
<style type="text/css">
	.st0{fill:#FFFFFF;}
</style>
<g>
	<rect x="10.1" y="8.3" transform="matrix(0.707 -0.7072 0.7072 0.707 -3.0072 10.4718)" class="st0" width="2.1" height="1.1"/>
	<rect x="7.8" y="10.6" transform="matrix(0.7073 -0.7069 0.7069 0.7073 -5.2764 9.5265)" class="st0" width="2.1" height="1.1"/>
	<rect x="10.6" y="10.1" transform="matrix(0.7071 -0.7071 0.7071 0.7071 -4.612 11.134)" class="st0" width="1.1" height="2.1"/>
	<rect x="8.3" y="7.8" transform="matrix(0.707 -0.7072 0.7072 0.707 -3.6722 8.8665)" class="st0" width="1.1" height="2.1"/>
	<rect x="9.5" y="9.5" transform="matrix(0.7072 -0.707 0.707 0.7072 -4.1421 9.998)" class="st0" width="1.1" height="1.1"/>
	<rect x="9.5" y="9.5" transform="matrix(0.7072 -0.707 0.707 0.7072 -4.1421 9.998)" class="st0" width="1.1" height="1.1"/>
</g>
</svg>
