<?xml version="1.0" encoding="utf-8"?>
<!-- Generator: Adobe Illustrator 20.0.0, SVG Export Plug-In . SVG Version: 6.00 Build 0)  -->
<svg version="1.1" id="Layer_1" xmlns="http://www.w3.org/2000/svg" xmlns:xlink="http://www.w3.org/1999/xlink" x="0px" y="0px"
	 viewBox="0 0 75 75" style="enable-background:new 0 0 75 75;" xml:space="preserve">
<style type="text/css">
	.st0{fill:#FFFFFF;}
</style>
<path class="st0" d="M61,22.9c-1.8,0.7-3.5,1.3-5.6,1.5c2.1-1.2,3.5-3.1,4.3-5.3c-1.9,1.2-4,1.9-6.2,2.3c-1.6-1.9-4.3-3.1-6.9-3.1
	c-5.3,0-9.7,4.3-9.7,9.7c0,0.7,0.1,1.5,0.3,2.2c-8.1-0.4-15.1-4.3-20-10.1C16.4,21.6,16,23.2,16,25c0,3.4,1.8,6.3,4.3,8.1
	c-1.6,0-3.1-0.4-4.4-1.2V32c0,4.7,3.4,8.5,7.8,9.4c-0.9,0.1-1.6,0.3-2.5,0.3c-0.6,0-1.2,0-1.8-0.1c1.2,3.8,4.8,6.6,9,6.7
	c-3.2,2.6-7.5,4.1-12,4.1c-0.7,0-1.6,0-2.3-0.1c4.3,2.8,9.4,4.4,14.8,4.4c17.8,0,27.4-14.7,27.4-27.4c0-0.4,0-0.9,0-1.2
	C58.1,26.6,59.7,24.8,61,22.9z"/>
</svg>
