<?xml version="1.0" encoding="utf-8"?>
<!-- Generator: Adobe Illustrator 20.0.0, SVG Export Plug-In . SVG Version: 6.00 Build 0)  -->
<svg version="1.1" id="Layer_1" xmlns="http://www.w3.org/2000/svg" xmlns:xlink="http://www.w3.org/1999/xlink" x="0px" y="0px"
	 viewBox="0 0 20 20" style="enable-background:new 0 0 20 20;" xml:space="preserve">
<style type="text/css">
	.st0{fill:#FFFFFF;}
</style>
<g>
	<rect x="10.2" y="6.4" transform="matrix(0.707 -0.7072 0.7072 0.707 -1.6901 11.0175)" class="st0" width="4.6" height="2.4"/>
	<rect x="5.3" y="11.3" transform="matrix(0.7073 -0.7069 0.7069 0.7073 -6.5928 8.9811)" class="st0" width="4.6" height="2.4"/>
	<rect x="11.3" y="10.2" transform="matrix(0.7071 -0.7071 0.7071 0.7071 -5.1574 12.4509)" class="st0" width="2.4" height="4.6"/>
	<rect x="6.4" y="5.3" transform="matrix(0.707 -0.7072 0.7072 0.707 -3.1267 7.5495)" class="st0" width="2.4" height="4.6"/>
	<rect x="8.8" y="8.8" transform="matrix(0.7072 -0.707 0.707 0.7072 -4.142 9.9982)" class="st0" width="2.4" height="2.4"/>
	<rect x="8.8" y="8.8" transform="matrix(0.7072 -0.707 0.707 0.7072 -4.142 9.9982)" class="st0" width="2.4" height="2.4"/>
</g>
</svg>
